<svg version="1.1" xmlns="http://www.w3.org/2000/svg" xmlns:xlink="http://www.w3.org/1999/xlink" width="453" height="400" style="width: 453px; height: 400px;"><defs/><g><g transform="scale(1,1) translate(0.5,0.5)"><rect fill="#FFFFFF" stroke="none" x="0" y="0" width="453" height="400"/><rect fill="#ffffff" stroke="none" x="0" y="0" width="453" height="400"/><rect fill="#FFFFFF" stroke="none" x="40" y="31" width="403" height="327"/><rect fill="#ffffff" stroke="none" x="40" y="31" width="403" height="327"/><g><rect fill="none" stroke="#e5e5e5" x="40" y="31" width="403" height="327" stroke-miterlimit="10"/></g><g><g><path fill="none" stroke="#e5e5e5" paint-order="fill stroke markers" d=" M 98 358 L 98 31" stroke-miterlimit="10"/><path fill="none" stroke="#e5e5e5" paint-order="fill stroke markers" d=" M 155 358 L 155 31" stroke-miterlimit="10"/><path fill="none" stroke="#e5e5e5" paint-order="fill stroke markers" d=" M 213 358 L 213 31" stroke-miterlimit="10"/><path fill="none" stroke="#e5e5e5" paint-order="fill stroke markers" d=" M 270 358 L 270 31" stroke-miterlimit="10"/><path fill="none" stroke="#e5e5e5" paint-order="fill stroke markers" d=" M 328 358 L 328 31" stroke-miterlimit="10"/><path fill="none" stroke="#e5e5e5" paint-order="fill stroke markers" d=" M 385 358 L 385 31" stroke-miterlimit="10"/></g><g><path fill="none" stroke="#e5e5e5" paint-order="fill stroke markers" d=" M 40 293 L 443 293" stroke-miterlimit="10"/><path fill="none" stroke="#e5e5e5" paint-order="fill stroke markers" d=" M 40 227 L 443 227" stroke-miterlimit="10"/><path fill="none" stroke="#e5e5e5" paint-order="fill stroke markers" d=" M 40 162 L 443 162" stroke-miterlimit="10"/><path fill="none" stroke="#e5e5e5" paint-order="fill stroke markers" d=" M 40 96 L 443 96" stroke-miterlimit="10"/></g><g><path fill="none" stroke="none"/><path fill="none" stroke="#30a2da" paint-order="fill stroke markers" d=" M 443 227.19999999999996 L 212.71428571428572 161.79999999999995 L 97.57142857142857 358 L 40 161.79999999999995" stroke-miterlimit="10" stroke-width="2"/></g></g><g/><g><g fill="#5b5b5b" fill-opacity="0.925"><path fill="none" stroke="black" paint-order="fill stroke markers" d=" M 40 358 L 443 358" stroke-miterlimit="10" stroke-opacity="0"/><path fill="none" stroke="black" paint-order="fill stroke markers" d=" M 40 364 L 40 356" stroke-miterlimit="10" stroke-opacity="0"/><path fill="none" stroke="black" paint-order="fill stroke markers" d=" M 98 364 L 98 356" stroke-miterlimit="10" stroke-opacity="0"/><path fill="none" stroke="black" paint-order="fill stroke markers" d=" M 155 364 L 155 356" stroke-miterlimit="10" stroke-opacity="0"/><path fill="none" stroke="black" paint-order="fill stroke markers" d=" M 213 364 L 213 356" stroke-miterlimit="10" stroke-opacity="0"/><path fill="none" stroke="black" paint-order="fill stroke markers" d=" M 270 364 L 270 356" stroke-miterlimit="10" stroke-opacity="0"/><path fill="none" stroke="black" paint-order="fill stroke markers" d=" M 328 364 L 328 356" stroke-miterlimit="10" stroke-opacity="0"/><path fill="none" stroke="black" paint-order="fill stroke markers" d=" M 385 364 L 385 356" stroke-miterlimit="10" stroke-opacity="0"/><path fill="none" stroke="black" paint-order="fill stroke markers" d=" M 443 364 L 443 356" stroke-miterlimit="10" stroke-opacity="0"/><path fill="none" stroke="black" paint-order="fill stroke markers" d=" M 40 362 L 40 358" stroke-miterlimit="10" stroke-opacity="0"/><path fill="none" stroke="black" paint-order="fill stroke markers" d=" M 52 362 L 52 358" stroke-miterlimit="10" stroke-opacity="0"/><path fill="none" stroke="black" paint-order="fill stroke markers" d=" M 63 362 L 63 358" stroke-miterlimit="10" stroke-opacity="0"/><path fill="none" stroke="black" paint-order="fill stroke markers" d=" M 75 362 L 75 358" stroke-miterlimit="10" stroke-opacity="0"/><path fill="none" stroke="black" paint-order="fill stroke markers" d=" M 86 362 L 86 358" stroke-miterlimit="10" stroke-opacity="0"/><path fill="none" stroke="black" paint-order="fill stroke markers" d=" M 98 362 L 98 358" stroke-miterlimit="10" stroke-opacity="0"/><path fill="none" stroke="black" paint-order="fill stroke markers" d=" M 109 362 L 109 358" stroke-miterlimit="10" stroke-opacity="0"/><path fill="none" stroke="black" paint-order="fill stroke markers" d=" M 121 362 L 121 358" stroke-miterlimit="10" stroke-opacity="0"/><path fill="none" stroke="black" paint-order="fill stroke markers" d=" M 132 362 L 132 358" stroke-miterlimit="10" stroke-opacity="0"/><path fill="none" stroke="black" paint-order="fill stroke markers" d=" M 144 362 L 144 358" stroke-miterlimit="10" stroke-opacity="0"/><path fill="none" stroke="black" paint-order="fill stroke markers" d=" M 155 362 L 155 358" stroke-miterlimit="10" stroke-opacity="0"/><path fill="none" stroke="black" paint-order="fill stroke markers" d=" M 167 362 L 167 358" stroke-miterlimit="10" stroke-opacity="0"/><path fill="none" stroke="black" paint-order="fill stroke markers" d=" M 178 362 L 178 358" stroke-miterlimit="10" stroke-opacity="0"/><path fill="none" stroke="black" paint-order="fill stroke markers" d=" M 190 362 L 190 358" stroke-miterlimit="10" stroke-opacity="0"/><path fill="none" stroke="black" paint-order="fill stroke markers" d=" M 201 362 L 201 358" stroke-miterlimit="10" stroke-opacity="0"/><path fill="none" stroke="black" paint-order="fill stroke markers" d=" M 213 362 L 213 358" stroke-miterlimit="10" stroke-opacity="0"/><path fill="none" stroke="black" paint-order="fill stroke markers" d=" M 224 362 L 224 358" stroke-miterlimit="10" stroke-opacity="0"/><path fill="none" stroke="black" paint-order="fill stroke markers" d=" M 236 362 L 236 358" stroke-miterlimit="10" stroke-opacity="0"/><path fill="none" stroke="black" paint-order="fill stroke markers" d=" M 247 362 L 247 358" stroke-miterlimit="10" stroke-opacity="0"/><path fill="none" stroke="black" paint-order="fill stroke markers" d=" M 259 362 L 259 358" stroke-miterlimit="10" stroke-opacity="0"/><path fill="none" stroke="black" paint-order="fill stroke markers" d=" M 270 362 L 270 358" stroke-miterlimit="10" stroke-opacity="0"/><path fill="none" stroke="black" paint-order="fill stroke markers" d=" M 282 362 L 282 358" stroke-miterlimit="10" stroke-opacity="0"/><path fill="none" stroke="black" paint-order="fill stroke markers" d=" M 293 362 L 293 358" stroke-miterlimit="10" stroke-opacity="0"/><path fill="none" stroke="black" paint-order="fill stroke markers" d=" M 305 362 L 305 358" stroke-miterlimit="10" stroke-opacity="0"/><path fill="none" stroke="black" paint-order="fill stroke markers" d=" M 316 362 L 316 358" stroke-miterlimit="10" stroke-opacity="0"/><path fill="none" stroke="black" paint-order="fill stroke markers" d=" M 328 362 L 328 358" stroke-miterlimit="10" stroke-opacity="0"/><path fill="none" stroke="black" paint-order="fill stroke markers" d=" M 339 362 L 339 358" stroke-miterlimit="10" stroke-opacity="0"/><path fill="none" stroke="black" paint-order="fill stroke markers" d=" M 351 362 L 351 358" stroke-miterlimit="10" stroke-opacity="0"/><path fill="none" stroke="black" paint-order="fill stroke markers" d=" M 362 362 L 362 358" stroke-miterlimit="10" stroke-opacity="0"/><path fill="none" stroke="black" paint-order="fill stroke markers" d=" M 374 362 L 374 358" stroke-miterlimit="10" stroke-opacity="0"/><path fill="none" stroke="black" paint-order="fill stroke markers" d=" M 385 362 L 385 358" stroke-miterlimit="10" stroke-opacity="0"/><path fill="none" stroke="black" paint-order="fill stroke markers" d=" M 397 362 L 397 358" stroke-miterlimit="10" stroke-opacity="0"/><path fill="none" stroke="black" paint-order="fill stroke markers" d=" M 408 362 L 408 358" stroke-miterlimit="10" stroke-opacity="0"/><path fill="none" stroke="black" paint-order="fill stroke markers" d=" M 420 362 L 420 358" stroke-miterlimit="10" stroke-opacity="0"/><path fill="none" stroke="black" paint-order="fill stroke markers" d=" M 431 362 L 431 358" stroke-miterlimit="10" stroke-opacity="0"/><path fill="" stroke="black" paint-order="fill stroke markers" d=" M 443 362 L 443 358" stroke-miterlimit="10" stroke-opacity="0"/><g transform="translate(40,369) rotate(0,0,0)"><text fill="" stroke="none" font-family="helvetica" font-size="1.0142331453710878em" font-style="normal" font-weight="normal" text-decoration="normal" x="0" y="0" text-anchor="middle" dominant-baseline="hanging">1</text><g transform="rotate(0,0,0) translate(-40,-369) translate(98,369) rotate(0,0,0)"><text fill="" stroke="none" font-family="helvetica" font-size="1.0142331453710878em" font-style="normal" font-weight="normal" text-decoration="normal" x="0" y="0" text-anchor="middle" dominant-baseline="hanging">2</text><g transform="rotate(0,0,0) translate(-98,-369) translate(155,369) rotate(0,0,0)"><text fill="" stroke="none" font-family="helvetica" font-size="1.0142331453710878em" font-style="normal" font-weight="normal" text-decoration="normal" x="0" y="0" text-anchor="middle" dominant-baseline="hanging">3</text><g transform="rotate(0,0,0) translate(-155,-369) translate(213,369) rotate(0,0,0)"><text fill="" stroke="none" font-family="helvetica" font-size="1.0142331453710878em" font-style="normal" font-weight="normal" text-decoration="normal" x="0" y="0" text-anchor="middle" dominant-baseline="hanging">4</text><g transform="rotate(0,0,0) translate(-213,-369) translate(270,369) rotate(0,0,0)"><text fill="" stroke="none" font-family="helvetica" font-size="1.0142331453710878em" font-style="normal" font-weight="normal" text-decoration="normal" x="0" y="0" text-anchor="middle" dominant-baseline="hanging">5</text><g transform="rotate(0,0,0) translate(-270,-369) translate(328,369) rotate(0,0,0)"><text fill="" stroke="none" font-family="helvetica" font-size="1.0142331453710878em" font-style="normal" font-weight="normal" text-decoration="normal" x="0" y="0" text-anchor="middle" dominant-baseline="hanging">6</text><g transform="rotate(0,0,0) translate(-328,-369) translate(385,369) rotate(0,0,0)"><text fill="" stroke="none" font-family="helvetica" font-size="1.0142331453710878em" font-style="normal" font-weight="normal" text-decoration="normal" x="0" y="0" text-anchor="middle" dominant-baseline="hanging">7</text><g transform="rotate(0,0,0) translate(-385,-369) translate(443,369) rotate(0,0,0)"><text fill="" stroke="none" font-family="helvetica" font-size="1.0142331453710878em" font-style="normal" font-weight="normal" text-decoration="normal" x="0" y="0" text-anchor="middle" dominant-baseline="hanging">8</text><g transform="rotate(0,0,0) translate(-443,-369) translate(242,386) rotate(0,0,0)"><text fill="" stroke="none" font-family="arial" font-size="1.1591235947098146em" font-style="normal" font-weight="normal" text-decoration="normal" x="0" y="0" text-anchor="middle" dominant-baseline="hanging">x</text><g transform="rotate(0,0,0) translate(-242,-386)"/></g></g></g></g></g></g></g></g></g></g><g fill="#5b5b5b" fill-opacity="0.925"><path fill="none" stroke="black" paint-order="fill stroke markers" d=" M 40 358 L 40 31" stroke-miterlimit="10" stroke-opacity="0"/><path fill="none" stroke="black" paint-order="fill stroke markers" d=" M 34 358 L 42 358" stroke-miterlimit="10" stroke-opacity="0"/><path fill="none" stroke="black" paint-order="fill stroke markers" d=" M 34 293 L 42 293" stroke-miterlimit="10" stroke-opacity="0"/><path fill="none" stroke="black" paint-order="fill stroke markers" d=" M 34 227 L 42 227" stroke-miterlimit="10" stroke-opacity="0"/><path fill="none" stroke="black" paint-order="fill stroke markers" d=" M 34 162 L 42 162" stroke-miterlimit="10" stroke-opacity="0"/><path fill="none" stroke="black" paint-order="fill stroke markers" d=" M 34 96 L 42 96" stroke-miterlimit="10" stroke-opacity="0"/><path fill="none" stroke="black" paint-order="fill stroke markers" d=" M 34 31 L 42 31" stroke-miterlimit="10" stroke-opacity="0"/><path fill="none" stroke="black" paint-order="fill stroke markers" d=" M 36 358 L 40 358" stroke-miterlimit="10" stroke-opacity="0"/><path fill="none" stroke="black" paint-order="fill stroke markers" d=" M 36 345 L 40 345" stroke-miterlimit="10" stroke-opacity="0"/><path fill="none" stroke="black" paint-order="fill stroke markers" d=" M 36 332 L 40 332" stroke-miterlimit="10" stroke-opacity="0"/><path fill="none" stroke="black" paint-order="fill stroke markers" d=" M 36 319 L 40 319" stroke-miterlimit="10" stroke-opacity="0"/><path fill="none" stroke="black" paint-order="fill stroke markers" d=" M 36 306 L 40 306" stroke-miterlimit="10" stroke-opacity="0"/><path fill="none" stroke="black" paint-order="fill stroke markers" d=" M 36 293 L 40 293" stroke-miterlimit="10" stroke-opacity="0"/><path fill="none" stroke="black" paint-order="fill stroke markers" d=" M 36 280 L 40 280" stroke-miterlimit="10" stroke-opacity="0"/><path fill="none" stroke="black" paint-order="fill stroke markers" d=" M 36 266 L 40 266" stroke-miterlimit="10" stroke-opacity="0"/><path fill="none" stroke="black" paint-order="fill stroke markers" d=" M 36 253 L 40 253" stroke-miterlimit="10" stroke-opacity="0"/><path fill="none" stroke="black" paint-order="fill stroke markers" d=" M 36 240 L 40 240" stroke-miterlimit="10" stroke-opacity="0"/><path fill="none" stroke="black" paint-order="fill stroke markers" d=" M 36 227 L 40 227" stroke-miterlimit="10" stroke-opacity="0"/><path fill="none" stroke="black" paint-order="fill stroke markers" d=" M 36 214 L 40 214" stroke-miterlimit="10" stroke-opacity="0"/><path fill="none" stroke="black" paint-order="fill stroke markers" d=" M 36 201 L 40 201" stroke-miterlimit="10" stroke-opacity="0"/><path fill="none" stroke="black" paint-order="fill stroke markers" d=" M 36 188 L 40 188" stroke-miterlimit="10" stroke-opacity="0"/><path fill="none" stroke="black" paint-order="fill stroke markers" d=" M 36 175 L 40 175" stroke-miterlimit="10" stroke-opacity="0"/><path fill="none" stroke="black" paint-order="fill stroke markers" d=" M 36 162 L 40 162" stroke-miterlimit="10" stroke-opacity="0"/><path fill="none" stroke="black" paint-order="fill stroke markers" d=" M 36 149 L 40 149" stroke-miterlimit="10" stroke-opacity="0"/><path fill="none" stroke="black" paint-order="fill stroke markers" d=" M 36 136 L 40 136" stroke-miterlimit="10" stroke-opacity="0"/><path fill="none" stroke="black" paint-order="fill stroke markers" d=" M 36 123 L 40 123" stroke-miterlimit="10" stroke-opacity="0"/><path fill="none" stroke="black" paint-order="fill stroke markers" d=" M 36 109 L 40 109" stroke-miterlimit="10" stroke-opacity="0"/><path fill="none" stroke="black" paint-order="fill stroke markers" d=" M 36 96 L 40 96" stroke-miterlimit="10" stroke-opacity="0"/><path fill="none" stroke="black" paint-order="fill stroke markers" d=" M 36 83 L 40 83" stroke-miterlimit="10" stroke-opacity="0"/><path fill="none" stroke="black" paint-order="fill stroke markers" d=" M 36 70 L 40 70" stroke-miterlimit="10" stroke-opacity="0"/><path fill="none" stroke="black" paint-order="fill stroke markers" d=" M 36 57 L 40 57" stroke-miterlimit="10" stroke-opacity="0"/><path fill="none" stroke="black" paint-order="fill stroke markers" d=" M 36 44 L 40 44" stroke-miterlimit="10" stroke-opacity="0"/><path fill="" stroke="black" paint-order="fill stroke markers" d=" M 36 31 L 40 31" stroke-miterlimit="10" stroke-opacity="0"/><g transform="translate(29,358) rotate(0,0,0)"><text fill="" stroke="none" font-family="helvetica" font-size="1.0142331453710878em" font-style="normal" font-weight="normal" text-decoration="normal" x="0" y="0" text-anchor="end" dominant-baseline="central">1</text><g transform="rotate(0,0,0) translate(-29,-358) translate(29,293) rotate(0,0,0)"><text fill="" stroke="none" font-family="helvetica" font-size="1.0142331453710878em" font-style="normal" font-weight="normal" text-decoration="normal" x="0" y="0" text-anchor="end" dominant-baseline="central">2</text><g transform="rotate(0,0,0) translate(-29,-293) translate(29,227) rotate(0,0,0)"><text fill="" stroke="none" font-family="helvetica" font-size="1.0142331453710878em" font-style="normal" font-weight="normal" text-decoration="normal" x="0" y="0" text-anchor="end" dominant-baseline="central">3</text><g transform="rotate(0,0,0) translate(-29,-227) translate(29,162) rotate(0,0,0)"><text fill="" stroke="none" font-family="helvetica" font-size="1.0142331453710878em" font-style="normal" font-weight="normal" text-decoration="normal" x="0" y="0" text-anchor="end" dominant-baseline="central">4</text><g transform="rotate(0,0,0) translate(-29,-162) translate(29,96) rotate(0,0,0)"><text fill="" stroke="none" font-family="helvetica" font-size="1.0142331453710878em" font-style="normal" font-weight="normal" text-decoration="normal" x="0" y="0" text-anchor="end" dominant-baseline="central">5</text><g transform="rotate(0,0,0) translate(-29,-96) translate(29,31) rotate(0,0,0)"><text fill="" stroke="none" font-family="helvetica" font-size="1.0142331453710878em" font-style="normal" font-weight="normal" text-decoration="normal" x="0" y="0" text-anchor="end" dominant-baseline="central">6</text><g transform="rotate(0,0,0) translate(-29,-31) translate(14,195) rotate(-90,0,0)"><text fill="" stroke="none" font-family="arial" font-size="1.1591235947098146em" font-style="normal" font-weight="normal" text-decoration="normal" x="0" y="0" text-anchor="middle" dominant-baseline="alphabetic">y</text><g transform="rotate(90,0,0) translate(-14,-195)"/></g></g></g></g></g></g></g></g><g fill="#5b5b5b" fill-opacity="0.925"><path fill="" stroke="none" d=""/><g transform="translate(40,26)"><path fill="none" stroke="none"/><text fill="" stroke="none" font-family="arial" font-size="1.593794942725995em" font-style="normal" font-weight="normal" text-decoration="normal" x="0" y="0" text-anchor="start" dominant-baseline="text-after-edge">red</text></g></g></g></g></g></svg>